/* XPM */
static char * door_xpm[] = {
"64 64 3 1",
" 	c None",
".	c #FFFF00",  // Yellow color
"+	c None",
"                                                                ",
"                                                                ",
"                                                                ",
"                                                                ",
"                                                                ",
"                                                                ",
"                                                                ",
"                                                                ",
"                                                                ",
"                                                                ",
"                                                                ",
"                                                                ",
"                                                                ",
"                                                                ",
"                                                                ",
"                                                                ",
"                                                                ",
"                                                                ",
"                                                                ",
"                                                                ",
"                                                                ",
"                                                                ",
"           ...............................                      ",
"           ...............................                      ",
"           ...............................                      ",
"           ...............................                      ",
"           ...............................                      ",
"           ...............................                      ",
"           ...............................                      ",
"           ...............................                      ",
"           ...............................                      ",
"           ...............................                      ",
"           ...............................                      ",
"           ...............................                      ",
"           ...............................                      ",
"           ...............................                      ",
"           ...............................                      ",
"           ...............................                      ",
"           ...............................                      ",
"           ...............................                      ",
"           ...............................                      ",
"           ...............................                      ",
"           ...............................                      ",
"           ...............................                      ",
"           ...............................                      ",
"           ...............................                      ",
"           ...............................                      ",
"           ...............................                      ",
"           ...............................                      ",
"           ...............................                      ",
"           ...............................                      ",
"                                                                ",
"                                                                ",
"                                                                ",
"                                                                ",
"                                                                ",
"                                                                ",
"                                                                ",
"                                                                ",
"                                                                ",
"                                                                ",
"                                                                ",
"                                                                ",
"                                                                ",
"                                                                ",
"                                                                ",
"                                                                "};
